<?xml version="1.0" encoding="UTF-8"?>
<svg id="Layer_1" data-name="Layer 1" xmlns="http://www.w3.org/2000/svg" viewBox="0 0 595.28 463.23">
  <defs>
    <style>
      .cls-1 {
        fill: #fff;
      }
    </style>
  </defs>
  <path class="cls-1" d="M452.16,255.14l24.56-40.41c-.94-.82-10.06,5.01-11.75,5.89-65.79,34.22-142.15,50.14-216.09,39.05-45.07-6.76-89.37-22.95-129.03-44.95l-.76.77,25.06,39.92-.76.25L3.77,177.29l-.84-1.45c29.16-19.29,59.16-37.29,89.7-54.33,23.84-13.3,48.7-27.23,72.99-39.58,53.05-26.97,101.59-36.46,161.43-31.45,62.89,5.27,114.76,37.02,168.53,66.83,32.99,18.29,65.7,37.39,96.76,58.79l-140.19,79.03ZM297.64,219.84c-5.06-10.03-10.11-20.09-14.2-30.57-12.37-31.66-21.08-67.98-18.54-102.19.1-1.34,1.59-8.08,1.31-8.47-.99-.8-2.44-.54-3.62-.49-3.29.15-8.28,1.07-11.7,1.6-51.77,8-96.02,35.02-130.55,73.6-4.93,5.51-9.71,11.2-13.98,17.24,11.37,15.67,28.42,27.74,45.44,36.76,70.01,37.08,183.23,38.95,257.64,14.58,26.67-8.74,59.1-25.25,77.26-47.08.84-1.01,3.06-3.56,2.74-4.76-16.13-20.54-34.67-39.38-56.05-54.5-30.31-21.44-66.36-34.65-103.52-37.45.77,9.22,1.92,18.08,1.56,27.4-1.3,33.28-12.11,69.76-26.03,99.84-.53,1.16-7.1,14.99-7.76,14.49Z"/>
  <path class="cls-1" d="M325.78,274.07l-8.46,106.45,67.81-21.26-87.23,101.08-87.24-101.32,68,21.43-8.65-106.37c18.5,1.51,37.27,1.58,55.77,0Z"/>
  <path class="cls-1" d="M339.08,2.9l-2.62,34.22c-.65.41-6.49-.86-7.87-.96-20.16-1.46-40.72-1.54-60.88,0-1.49.11-7.56,1.5-8.22.53l-2.27-33.79c3.82.62,7.67,1.57,11.51,2.04,14.43,1.75,28.96,2.62,43.48,1.54,8.87-.66,18.12-2.05,26.86-3.58Z"/>
</svg>